<svg id="Main_Layer" data-name="Main Layer" xmlns="http://www.w3.org/2000/svg" xmlns:xlink="http://www.w3.org/1999/xlink" viewBox="0 0 922.46 662.96"><defs><style>.cls-1,.cls-2{fill:#003000;}.cls-1,.cls-10,.cls-5,.cls-6,.cls-7,.cls-8,.cls-9{stroke:#fff;stroke-miterlimit:10;stroke-width:12.22px;}.cls-3{clip-path:url(#clip-path);}.cls-4,.cls-7{fill:#00cf50;}.cls-12,.cls-5{fill:#006928;}.cls-6{fill:#00ad42;}.cls-8{fill:#01f05e;}.cls-9{fill:#008b35;}.cls-10{fill:none;}.cls-11{fill:#fff;}</style><clipPath id="clip-path" transform="translate(21.15 -84.19)"><path class="cls-1" d="M298,117.16c-2.08,2.51-3.65,4.17-4.94,6-17.15,24.75-34.84,49.14-51.24,74.37-20.73,31.9-39.83,64.78-52.69,100.87-5.49,15.4-8.34,31.13-6,47.43,9.46,66.71,67.52,109.84,134.12,99.76,51.32-7.77,92.82-54.13,95.63-106,1.14-21-5.28-40.09-13.44-58.74-20-45.77-47.33-87.29-75.7-128.15C315.51,140.87,306.85,129.36,298,117.16Z"/></clipPath></defs><rect class="cls-2" x="26.02" width="585.53" height="585.53"/><path class="cls-2" d="M298,117.16c-2.08,2.51-3.65,4.17-4.94,6-17.15,24.75-34.84,49.14-51.24,74.37-20.73,31.9-39.83,64.78-52.69,100.87-5.49,15.4-8.34,31.13-6,47.43,9.46,66.71,67.52,109.84,134.12,99.76,51.32-7.77,92.82-54.13,95.63-106,1.14-21-5.28-40.09-13.44-58.74-20-45.77-47.33-87.29-75.7-128.15C315.51,140.87,306.85,129.36,298,117.16Z" transform="translate(21.15 -84.19)"/><g class="cls-3"><g id="tree"><circle class="cls-4" cx="308.46" cy="120.1" r="10.05"/><circle class="cls-4" cx="282.42" cy="147.55" r="10.05"/><circle class="cls-4" cx="340.44" cy="101.42" r="10.05"/><circle class="cls-4" cx="366.19" cy="133.4" r="10.05"/><polygon class="cls-4" points="302.8 241.37 341.29 215.33 341.29 194.1 371.57 164.11 371.57 142.03 360.82 142.03 360.82 157.6 330.25 188.16 330.25 208.54 314.4 219.58 314.12 179.1 345.53 147.69 345.53 110.05 334.5 110.05 334.5 142.03 313.84 162.69 313.84 128.16 302.8 128.16 302.8 186.46 288.37 172.03 288.37 155.62 276.48 155.62 276.48 177.97 302.09 203.59 302.8 241.37"/></g><circle class="cls-5" cx="418.44" cy="358.56" r="168.11"/><circle class="cls-5" cx="174.22" cy="337.73" r="168.11"/><circle class="cls-6" cx="175.89" cy="338.32" r="142.89"/><circle class="cls-7" cx="177.36" cy="343.69" r="121.46"/><circle class="cls-8" cx="172.98" cy="350.41" r="103.24"/><circle class="cls-9" cx="418.44" cy="358.56" r="142.89"/><circle class="cls-6" cx="423.33" cy="363.45" r="121.46"/><circle class="cls-7" cx="428.22" cy="368.34" r="103.24"/><circle class="cls-8" cx="434.13" cy="376.04" r="87.76"/><circle class="cls-8" cx="828.6" cy="569.1" r="87.76"/></g><path class="cls-10" d="M298,117.16c-2.08,2.51-3.65,4.17-4.94,6-17.15,24.75-34.84,49.14-51.24,74.37-20.73,31.9-39.83,64.78-52.69,100.87-5.49,15.4-8.34,31.13-6,47.43,9.46,66.71,67.52,109.84,134.12,99.76,51.32-7.77,92.82-54.13,95.63-106,1.14-21-5.28-40.09-13.44-58.74-20-45.77-47.33-87.29-75.7-128.15C315.51,140.87,306.85,129.36,298,117.16Z" transform="translate(21.15 -84.19)"/><path class="cls-11" d="M174.78,485.86h31.88l37,117.83H215.47L200.05,544c-3.27-11.78-6.42-25.72-9.56-38h-.73c-2.85,12.44-6,26.23-9.27,38L165,603.69H137.78Zm-12.6,69.06h56.69v20.7H162.18Z" transform="translate(21.15 -84.19)"/><path class="cls-11" d="M256.45,485.86h74.36V508.2H283.09v27.32h40.77v22.34H283.09v45.83H256.45Z" transform="translate(21.15 -84.19)"/><path class="cls-11" d="M351.18,485.86h27.3l30.74,58.61,11.66,25.88h.72c-1.26-12.46-3.4-29-3.4-42.86V485.86h25.38V603.69h-27.3l-30.74-58.75L373.88,519.2h-.72c1.26,13,3.4,28.78,3.4,42.67v41.82H351.18Z" transform="translate(21.15 -84.19)"/><path class="cls-11" d="M148.24,609.14h6l9.37,28.76h-5.4l-4.38-15.31c-.91-3-1.76-6.32-2.6-9.48H151c-.79,3.19-1.63,6.44-2.55,9.48l-4.41,15.31h-5.21Zm-3.84,17H158v4H144.4Z" transform="translate(21.15 -84.19)"/><path class="cls-11" d="M179.79,639.33l.19-3.6a8.86,8.86,0,0,1-5.95,2.69c-5.38,0-8.86-4.18-8.86-11.31s4.41-11.34,9.15-11.34a8,8,0,0,1,6,2.62h.14l.44-2.09h4v30.14h-5.06Zm0-7.52V621.75a6.39,6.39,0,0,0-4.4-1.8c-2.75,0-5,2.61-5,7.11,0,4.7,1.79,7.18,4.9,7.18A5.73,5.73,0,0,0,179.79,631.81Z" transform="translate(21.15 -84.19)"/><path class="cls-11" d="M190.82,629.84V616.3h5.07v12.89c0,3.55,1,4.89,3.36,4.89,1.9,0,3.15-.88,4.78-3V616.3h5.07v21.6H205l-.39-3.19h-.14c-1.9,2.25-4,3.71-6.95,3.71C192.85,638.42,190.82,635.29,190.82,629.84Z" transform="translate(21.15 -84.19)"/><path class="cls-11" d="M214.14,632.09c0-4.62,3.84-7,12.7-8-.07-2.32-1-4.25-3.92-4.25a11.93,11.93,0,0,0-6.07,2.13L215,618.6a16.76,16.76,0,0,1,8.86-2.83c5.4,0,8.06,3.32,8.06,9.34V637.9h-4.15l-.39-2.4h-.14a10.42,10.42,0,0,1-6.7,2.92A6,6,0,0,1,214.14,632.09Zm12.7,0v-4.86C221,628,219,629.52,219,631.7c0,1.91,1.3,2.75,3.11,2.75S225.24,633.59,226.84,632.11Z" transform="translate(21.15 -84.19)"/><path class="cls-11" d="M238.21,609.14h17.38v4.29H243.32v8.16h10.44v4.29H243.32v12h-5.11Z" transform="translate(21.15 -84.19)"/><path class="cls-11" d="M257.5,632.09c0-4.62,3.84-7,12.7-8-.07-2.32-1-4.25-3.92-4.25a11.93,11.93,0,0,0-6.07,2.13l-1.86-3.38a16.76,16.76,0,0,1,8.86-2.83c5.4,0,8.06,3.32,8.06,9.34V637.9h-4.15l-.39-2.4h-.14a10.42,10.42,0,0,1-6.7,2.92A6.05,6.05,0,0,1,257.5,632.09Zm12.7,0v-4.86c-5.85.74-7.81,2.27-7.81,4.45,0,1.91,1.3,2.75,3.12,2.75S268.6,633.59,270.2,632.11Z" transform="translate(21.15 -84.19)"/><path class="cls-11" d="M281.14,616.3h4.15l.38,3.85h.14c1.54-2.82,3.83-4.38,6.14-4.38a5.51,5.51,0,0,1,2.45.44l-.88,4.39a7.38,7.38,0,0,0-2.22-.35c-1.72,0-3.8,1.18-5.1,4.47V637.9h-5.06Z" transform="translate(21.15 -84.19)"/><path class="cls-11" d="M297.32,616.3h4.15l.39,2.94H302c1.83-1.91,3.92-3.47,6.63-3.47a5.82,5.82,0,0,1,6,3.87c2.07-2.2,4.21-3.87,7-3.87,4.56,0,6.67,3.13,6.67,8.58V637.9h-5.07V625c0-3.55-1.06-4.89-3.32-4.89-1.38,0-2.85.88-4.52,2.69v15.1h-5.07V625c0-3.55-1.06-4.89-3.32-4.89-1.34,0-2.85.88-4.53,2.69v15.1h-5.06Z" transform="translate(21.15 -84.19)"/><path class="cls-11" d="M343.19,609.14h5.24l8.93,16.16,3,6.14h.17c-.24-3-.65-6.61-.65-9.82V609.14h4.86V637.9h-5.25l-8.93-16.2-3-6.11h-.18c.25,3,.65,6.51.65,9.71v12.6h-4.85Z" transform="translate(21.15 -84.19)"/><path class="cls-11" d="M370,627.11c0-7,4.87-11.34,10-11.34,5.84,0,8.92,4.22,8.92,10.25a13.38,13.38,0,0,1-.22,2.46H374.89c.43,3.84,2.89,6,6.37,6a9.15,9.15,0,0,0,5-1.57l1.73,3.15a13.41,13.41,0,0,1-7.41,2.34C374.63,638.42,370,634.24,370,627.11Zm14.5-2.07c0-3.33-1.48-5.35-4.44-5.35-2.51,0-4.73,1.88-5.17,5.35Z" transform="translate(21.15 -84.19)"/><path class="cls-11" d="M397.69,626.64,391.3,616.3h5.46l2.39,4.09c.62,1.2,1.31,2.45,2,3.64h.18c.55-1.19,1.15-2.44,1.7-3.64l2-4.09h5.26l-6.38,10.9,6.84,10.7h-5.45l-2.64-4.28c-.71-1.27-1.44-2.58-2.18-3.82h-.18c-.64,1.24-1.27,2.53-1.92,3.82l-2.28,4.28h-5.26Z" transform="translate(21.15 -84.19)"/><path class="cls-11" d="M410.22,629.84V616.3h5.07v12.89c0,3.55,1,4.89,3.36,4.89,1.9,0,3.15-.88,4.78-3V616.3h5.07v21.6h-4.15l-.39-3.19h-.14c-1.9,2.25-4,3.71-6.95,3.71C412.25,638.42,410.22,635.29,410.22,629.84Z" transform="translate(21.15 -84.19)"/><path class="cls-11" d="M432.56,635.42l2.35-3.22a9.58,9.58,0,0,0,6,2.41c2.35,0,3.46-1.11,3.46-2.59,0-1.81-2.34-2.62-4.64-3.5-2.83-1.06-6.07-2.69-6.07-6.3s3-6.45,7.86-6.45a11.66,11.66,0,0,1,7.18,2.58l-2.32,3.12a8.1,8.1,0,0,0-4.74-1.89c-2.17,0-3.2,1-3.2,2.4,0,1.7,2.18,2.35,4.52,3.22,2.92,1.09,6.2,2.49,6.2,6.52,0,3.71-2.94,6.7-8.39,6.7A13.49,13.49,0,0,1,432.56,635.42Z" transform="translate(21.15 -84.19)"/><polygon class="cls-12" points="315.26 233.66 303.96 244.21 311.22 254.81 322.16 244.61 315.26 233.66"/></svg>